# xmcd
#
# Track frame offsets:
#	182
#	13670
#	25867
#	38885
#	50920
#	64112
#	74692
#	85172
#	94047
#	105580
#	120117
#	132242
#	143175
#	157995
#	170162
#	184550
#
# Disc length: 2698 seconds
#
# Revision: 1
# Processed by: cddbd v1.5.1PL0 Copyright (c) Steve Scherf et al.
# Submitted via: audiograbber 1.80
#
DISCID=d70a8810
DTITLE=Varios - Basic Rhythm And Blues
DYEAR=1900
DGENRE=
TTITLE0=Money Honey
TTITLE1=The Dock Of The Bay
TTITLE2=I Got A Woman
TTITLE3=A Natural Woman
TTITLE4=Stand By Me
TTITLE5=Soul Finger
TTITLE6=Sweet Soul Music
TTITLE7=Got To Get You Off My Mind
TTITLE8=In The Midnight Hour
TTITLE9=I've Been Loving You Too Long
TTITLE10=Under The Boardwalk
TTITLE11=Mercy Mercy
TTITLE12=Release Me
TTITLE13=Hello Stranger
TTITLE14=I'll Be Around
TTITLE15=Then Came You
EXTD=
EXTT0=Money Honey
EXTT1=
EXTT2=
EXTT3=
EXTT4=
EXTT5=
EXTT6=
EXTT7=
EXTT8=
EXTT9=
EXTT10=
EXTT11=
EXTT12=
EXTT13=
EXTT14=
EXTT15=
PLAYORDER=
